<?xml version="1.0" encoding="iso-8859-1"?>
<!-- Generator: Adobe Illustrator 19.0.0, SVG Export Plug-In . SVG Version: 6.00 Build 0)  -->
<svg version="1.1" id="Layer_1" xmlns="http://www.w3.org/2000/svg" xmlns:xlink="http://www.w3.org/1999/xlink" x="0px" y="0px"
	 viewBox="0 0 512 512" style="enable-background:new 0 0 512 512;" xml:space="preserve">
<path style="fill:#5C5F66;" d="M347,90H45c-24.814,0-45,22.186-45,47v330c0,24.814,20.186,45,45,45h302c24.814,0,45-20.186,45-45
	V137C392,112.186,371.814,90,347,90z"/>
<path style="fill:#53565C;" d="M347,90H195v422h152c24.814,0,45-20.186,45-45V137C392,112.186,371.814,90,347,90z"/>
<path style="fill:#E6EEFF;" d="M45,482c-8.271,0-15-6.729-15-15V137c0-8.738,7.29-17,15-17h302c7.71,0,15,8.262,15,17v330
	c0,8.271-6.729,15-15,15H45z"/>
<path style="fill:#DAE2F2;" d="M195,120v362h152c8.271,0,15-6.729,15-15V137c0-8.738-7.29-17-15-17H195z"/>
<path style="fill:#C4CAD9;" d="M317,122H75c-8.291,0-15-6.709-15-15v-2c0-24.814,20.186-45,45-45h16.509
	C128.481,25.811,158.774,0,195,0s68.519,25.811,75.491,60H287c24.814,0,45,20.186,45,45v2C332,115.291,325.291,122,317,122z"/>
<path style="fill:#B8BFCC;" d="M317,122c8.291,0,15-6.709,15-15v-2c0-24.814-20.186-45-45-45h-16.509
	C263.519,25.811,231.226,0,195,0v122H317z"/>
<path style="fill:#5C5F66;" d="M195,60c-8.401,0-15.3,6.899-15.3,15c0,8.399,6.899,15.3,15.3,15.3c8.101,0,15-6.901,15-15.3
	C210,66.899,203.101,60,195,60z"/>
<g>
	<path style="fill:#7BCC29;" d="M105,242c-3.838,0-7.676-1.465-10.605-4.395l-30-30c-5.859-5.859-5.859-15.352,0-21.211
		s15.352-5.859,21.211,0L105,205.789l49.395-49.395c5.859-5.859,15.352-5.859,21.211,0s5.859,15.352,0,21.211l-60,60
		C112.676,240.535,108.838,242,105,242z"/>
	<path style="fill:#7BCC29;" d="M105,332c-3.838,0-7.676-1.465-10.605-4.395l-30-30c-5.859-5.859-5.859-15.352,0-21.211
		s15.352-5.859,21.211,0L105,295.789l49.395-49.395c5.859-5.859,15.352-5.859,21.211,0s5.859,15.352,0,21.211l-60,60
		C112.676,330.535,108.838,332,105,332z"/>
</g>
<path style="fill:#E55639;" d="M126.211,407l19.395-19.395c5.859-5.859,5.859-15.352,0-21.211s-15.352-5.859-21.211,0L105,385.789
	l-19.395-19.395c-5.859-5.859-15.352-5.859-21.211,0s-5.859,15.352,0,21.211L83.789,407l-19.395,19.395
	c-5.859,5.859-5.859,15.352,0,21.211c5.86,5.86,15.351,5.86,21.211,0L105,428.211l19.395,19.395c5.86,5.86,15.351,5.86,21.211,0
	c5.859-5.859,5.859-15.352,0-21.211L126.211,407z"/>
<g>
	<path style="fill:#757982;" d="M317,242h-92c-8.291,0-15-6.709-15-15s6.709-15,15-15h92c8.291,0,15,6.709,15,15
		S325.291,242,317,242z"/>
	<path style="fill:#757982;" d="M317,332h-92c-8.291,0-15-6.709-15-15s6.709-15,15-15h92c8.291,0,15,6.709,15,15
		S325.291,332,317,332z"/>
	<path style="fill:#757982;" d="M317,422h-92c-8.291,0-15-6.709-15-15s6.709-15,15-15h92c8.291,0,15,6.709,15,15
		S325.291,422,317,422z"/>
</g>
<path style="fill:#53565C;" d="M210,75c0,8.399-6.899,15.3-15,15.3V60C203.101,60,210,66.899,210,75z"/>
<path style="fill:#FFEACC;" d="M504.2,147.499L498.8,137l-15.899-10.254h-37.449L435.2,137l-5.4,10.499
	c-5.099,10.501-7.8,22.2-7.8,33.6V182c0,16.569,13.431,30,30,30h30c16.569,0,30-13.431,30-30v-0.901
	C512,169.699,509.299,158,504.2,147.499z"/>
<path style="fill:#FFDBB2;" d="M512,181.099V182c0,16.569-13.431,30-30,30h-15v-75h31.8l5.4,10.499
	C509.299,158,512,169.699,512,181.099z"/>
<path style="fill:#FF73B9;" d="M467,512L467,512c-24.853,0-45-20.147-45-45v-15c0-16.569,13.431-30,30-30h30
	c16.569,0,30,13.431,30,30v15C512,491.853,491.853,512,467,512z"/>
<path style="fill:#E667A8;" d="M467,512c24.853,0,45-20.147,45-45v-15c0-16.569-13.431-30-30-30h-15V512z"/>
<path style="fill:#50B9FF;" d="M512,392V182h-90v210c0,16.569,13.431,30,30,30h30C498.569,422,512,408.569,512,392z"/>
<path style="fill:#4596E6;" d="M467,422h15c16.569,0,30-13.431,30-30V182h-45V422z"/>
<rect x="422" y="392" style="fill:#C4CAD9;" width="90" height="60"/>
<rect x="467" y="392" style="fill:#B8BFCC;" width="45" height="60"/>
<path style="fill:#5C5F66;" d="M435.2,137h63.6l-18.3-36.601C477.8,95.3,472.7,92,467,92s-10.8,3.3-13.5,8.399L435.2,137z"/>
<path style="fill:#757982;" d="M435.2,137H467V92c-5.7,0-10.8,3.3-13.5,8.399L435.2,137z"/>
<g>
</g>
<g>
</g>
<g>
</g>
<g>
</g>
<g>
</g>
<g>
</g>
<g>
</g>
<g>
</g>
<g>
</g>
<g>
</g>
<g>
</g>
<g>
</g>
<g>
</g>
<g>
</g>
<g>
</g>
</svg>
