<?xml version="1.0" encoding="iso-8859-1"?>
<!-- Generator: Adobe Illustrator 19.0.0, SVG Export Plug-In . SVG Version: 6.00 Build 0)  -->
<svg version="1.1" id="Layer_1" xmlns="http://www.w3.org/2000/svg" xmlns:xlink="http://www.w3.org/1999/xlink" x="0px" y="0px"
	 viewBox="0 0 512 512" style="enable-background:new 0 0 512 512;" xml:space="preserve">
<path style="fill:#D6E5F6;" d="M444.763,300.824c0,104.252-84.51,188.764-188.77,188.764c-104.243,0-188.755-84.512-188.755-188.764
	c0-104.251,84.512-188.761,188.755-188.761C360.251,112.062,444.763,196.573,444.763,300.824z"/>
<path style="fill:#A4C6EC;" d="M444.763,300.824c0-104.249-84.507-188.757-188.763-188.761v377.525
	C360.255,489.582,444.763,405.073,444.763,300.824z"/>
<path style="fill:#F6E27D;" d="M315.628,98.237c4.846-9.283,7.602-19.823,7.602-30.999C323.23,30.163,293.069,0,255.993,0
	s-67.237,30.163-67.237,67.237c0,11.176,2.758,21.716,7.602,31.001c-87.489,25.8-151.532,106.848-151.532,202.585
	C44.825,417.267,139.554,512,255.993,512c116.446,0,211.182-94.733,211.182-211.177C467.175,205.085,403.125,124.037,315.628,98.237
	z M233.58,67.237c0-12.358,10.054-22.412,22.413-22.412s22.412,10.054,22.412,22.412S268.351,89.65,255.993,89.65
	S233.58,79.596,233.58,67.237z M255.993,467.175c-91.722,0-166.343-74.625-166.343-166.352c0-91.725,74.62-166.349,166.343-166.349
	c91.73,0,166.358,74.623,166.358,166.349C422.35,392.55,347.722,467.175,255.993,467.175z"/>
<path style="fill:#D8145D;" d="M326.055,341.265l-30.572-68.191c-2.178-5.07-6.198-9.265-11.427-11.61l-68.508-30.705
	c-8.487-3.804-18.44-1.971-25.015,4.605c-6.574,6.576-8.406,16.53-4.602,25.015l30.539,68.113c2.17,5.107,6.204,9.333,11.462,11.689
	l68.508,30.704c2.945,1.319,6.065,1.959,9.161,1.959c5.827,0,11.56-2.271,15.855-6.567
	C328.028,359.706,329.86,349.751,326.055,341.265z"/>
<path style="fill:#F2D23D;" d="M467.175,300.824c0-95.739-64.05-176.787-151.547-202.587c4.846-9.283,7.602-19.823,7.602-30.999
	C323.23,30.164,293.072,0.004,256,0v44.825c12.357,0.004,22.405,10.056,22.405,22.412S268.355,89.646,256,89.65v44.825
	c91.727,0.004,166.35,74.625,166.35,166.349c0,91.725-74.623,166.346-166.35,166.352V512
	C372.443,511.994,467.175,417.264,467.175,300.824z"/>
<path style="fill:#A90140;" d="M305.597,372.847c5.827,0,11.56-2.271,15.855-6.567c6.574-6.574,8.406-16.53,4.602-25.015
	l-30.572-68.191c-2.178-5.07-6.198-9.265-11.427-11.61L256,248.891v103.871l40.438,18.124
	C299.382,372.206,302.503,372.847,305.597,372.847z"/>
<g>
</g>
<g>
</g>
<g>
</g>
<g>
</g>
<g>
</g>
<g>
</g>
<g>
</g>
<g>
</g>
<g>
</g>
<g>
</g>
<g>
</g>
<g>
</g>
<g>
</g>
<g>
</g>
<g>
</g>
</svg>
