<?xml version="1.0" standalone="no"?>
<!DOCTYPE svg PUBLIC "-//W3C//DTD SVG 20010904//EN"
 "http://www.w3.org/TR/2001/REC-SVG-20010904/DTD/svg10.dtd">
<svg version="1.0" xmlns="http://www.w3.org/2000/svg"
 width="300.000000pt" height="300.000000pt" viewBox="0 0 300.000000 300.000000"
 preserveAspectRatio="xMidYMid meet">
<metadata>
Created by potrace 1.10, written by Peter Selinger 2001-2011
</metadata>
<g transform="translate(0.000000,300.000000) scale(0.050000,-0.050000)"
fill="#dd4949" stroke="none">
<path d="M2928 5431 c-140 -60 -172 -220 -68 -338 46 -52 60 -88 60 -151 l0
-82 85 0 85 0 -7 88 c-6 73 0 92 35 111 219 117 38 471 -190 372z"/>
<path d="M2812 4760 c-647 -116 -1032 -612 -1032 -1329 l0 -263 -89 -43 c-56
-27 -111 -76 -145 -128 l-56 -84 -6 -518 c-5 -433 -11 -519 -36 -529 -170 -65
-68 -386 122 -386 193 0 280 256 129 380 -37 30 -71 600 -35 600 94 0 116 -37
116 -196 0 -342 146 -585 430 -718 l120 -56 680 0 680 0 110 53 c278 132 405
333 417 659 l7 213 68 32 68 32 0 -290 0 -290 -61 -54 c-181 -163 12 -444 232
-338 139 66 159 255 38 351 l-49 38 0 493 c0 414 -5 503 -32 557 -48 94 -126
170 -199 194 l-65 22 -9 334 c-10 392 -39 497 -200 737 -260 389 -758 607
-1203 527z m388 -381 c391 -64 646 -340 646 -700 0 -349 -68 -379 -844 -379
-791 0 -860 34 -838 419 27 471 469 752 1036 660z m-1100 -1079 c37 -44 79
-80 94 -80 15 0 32 -13 38 -28 28 -73 165 -99 573 -108 321 -7 395 -13 395
-36 0 -15 -10 -26 -23 -23 -32 7 -177 -186 -177 -235 0 -45 43 -115 124 -200
l54 -58 306 -2 c379 -2 536 76 536 267 0 118 -245 294 -340 243 -20 -11 -51
-14 -69 -8 -57 22 -32 62 62 98 52 20 148 86 214 147 l120 110 27 -117 c15
-64 49 -146 76 -182 28 -36 50 -74 50 -85 0 -11 18 -26 40 -33 22 -7 36 -20
31 -29 -5 -8 12 -36 40 -62 93 -88 10 -339 -113 -339 -49 0 -114 -161 -124
-305 -18 -254 -159 -459 -357 -519 -244 -74 -1499 -21 -1471 61 2 7 -2 13 -9
13 -54 0 -212 230 -187 271 7 10 4 19 -7 19 -11 0 -26 61 -33 135 -7 74 -14
153 -16 175 -2 22 -57 93 -123 158 -168 167 -171 265 -13 444 134 151 145 172
156 280 14 130 36 135 126 28z m1219 -449 c56 -68 -21 -184 -93 -140 -65 42
-77 83 -37 128 43 48 96 53 130 12z m250 -2 c17 -18 31 -44 31 -59 0 -15 -14
-41 -31 -59 -18 -17 -44 -31 -59 -31 -15 0 -41 14 -59 31 -17 18 -31 44 -31
59 0 15 14 41 31 59 18 17 44 31 59 31 15 0 41 -14 59 -31z m260 0 c40 -40 39
-67 -2 -112 -59 -66 -147 -34 -147 53 0 84 88 119 149 59z"/>
<path d="M2388 3871 c-124 -53 -136 -222 -20 -293 113 -70 252 8 252 142 0
124 -118 201 -232 151z"/>
<path d="M3483 3869 c-110 -47 -136 -168 -56 -262 140 -162 386 49 253 218
-48 62 -117 77 -197 44z"/>
<path d="M2500 1379 c0 -12 13 -46 29 -77 170 -329 820 -313 961 24 l31 74
-511 0 c-343 0 -510 -7 -510 -21z"/>
</g>
</svg>
