<?xml version="1.0" encoding="UTF-8" standalone="no"?>
<!-- Generator: Adobe Illustrator 18.1.1, SVG Export Plug-In . SVG Version: 6.00 Build 0)  -->

<svg
   xmlns:dc="http://purl.org/dc/elements/1.1/"
   xmlns:cc="http://creativecommons.org/ns#"
   xmlns:rdf="http://www.w3.org/1999/02/22-rdf-syntax-ns#"
   xmlns:svg="http://www.w3.org/2000/svg"
   xmlns="http://www.w3.org/2000/svg"
   xmlns:sodipodi="http://sodipodi.sourceforge.net/DTD/sodipodi-0.dtd"
   xmlns:inkscape="http://www.inkscape.org/namespaces/inkscape"
   version="1.1"
   id="Capa_1"
   x="0px"
   y="0px"
   viewBox="0 0 31.586 31.586"
   style="enable-background:new 0 0 31.586 31.586;"
   xml:space="preserve"
   inkscape:version="0.91 r13725"
   sodipodi:docname="terminal.svg"><metadata
     id="metadata75"><rdf:RDF><cc:Work
         rdf:about=""><dc:format>image/svg+xml</dc:format><dc:type
           rdf:resource="http://purl.org/dc/dcmitype/StillImage" /></cc:Work></rdf:RDF></metadata><defs
     id="defs73" /><sodipodi:namedview
     pagecolor="#ffffff"
     bordercolor="#666666"
     borderopacity="1"
     objecttolerance="10"
     gridtolerance="10"
     guidetolerance="10"
     inkscape:pageopacity="0"
     inkscape:pageshadow="2"
     inkscape:window-width="640"
     inkscape:window-height="480"
     id="namedview71"
     showgrid="false"
     inkscape:zoom="7.4716646"
     inkscape:cx="15.793"
     inkscape:cy="15.793"
     inkscape:window-x="75"
     inkscape:window-y="34"
     inkscape:window-maximized="0"
     inkscape:current-layer="Capa_1" /><g
     id="g3"
     style="fill:#ffffff"><path
       d="M29.328,2.255H2.256C1.01,2.255,0,3.264,0,4.51v22.564c0,1.245,1.01,2.256,2.256,2.256h27.072   c1.244,0,2.258-1.012,2.258-2.256V4.51C31.586,3.264,30.572,2.255,29.328,2.255z M7.333,3.949c0.622,0,1.128,0.502,1.128,1.128   c0,0.623-0.506,1.125-1.128,1.125c-0.626,0-1.131-0.502-1.131-1.125C6.202,4.451,6.707,3.949,7.333,3.949z M3.947,3.949   c0.623,0,1.127,0.502,1.127,1.128c0,0.623-0.504,1.125-1.127,1.125c-0.624,0-1.129-0.502-1.129-1.125   C2.818,4.451,3.323,3.949,3.947,3.949z M29.328,27.075H2.256V7.92h27.072C29.328,7.92,29.328,27.075,29.328,27.075z"
       id="path5"
       style="fill:#ffffff" /><polygon
       points="12.645,12.556 5.4,9.243 5.4,10.84 11.003,13.235 11.003,13.266 5.4,15.66 5.4,17.256 12.645,13.943  "
       id="polygon7"
       style="fill:#ffffff" /><rect
       x="16.056"
       y="12.488"
       width="3.946"
       height="1.522"
       id="rect9"
       style="fill:#ffffff" /><g
       id="g11"
       style="fill:#ffffff" /><g
       id="g13"
       style="fill:#ffffff" /><g
       id="g15"
       style="fill:#ffffff" /><g
       id="g17"
       style="fill:#ffffff" /><g
       id="g19"
       style="fill:#ffffff" /><g
       id="g21"
       style="fill:#ffffff" /><g
       id="g23"
       style="fill:#ffffff" /><g
       id="g25"
       style="fill:#ffffff" /><g
       id="g27"
       style="fill:#ffffff" /><g
       id="g29"
       style="fill:#ffffff" /><g
       id="g31"
       style="fill:#ffffff" /><g
       id="g33"
       style="fill:#ffffff" /><g
       id="g35"
       style="fill:#ffffff" /><g
       id="g37"
       style="fill:#ffffff" /><g
       id="g39"
       style="fill:#ffffff" /></g><g
     id="g41" /><g
     id="g43" /><g
     id="g45" /><g
     id="g47" /><g
     id="g49" /><g
     id="g51" /><g
     id="g53" /><g
     id="g55" /><g
     id="g57" /><g
     id="g59" /><g
     id="g61" /><g
     id="g63" /><g
     id="g65" /><g
     id="g67" /><g
     id="g69" /></svg>